<svg xmlns="http://www.w3.org/2000/svg" xmlns:xlink="http://www.w3.org/1999/xlink" width="169" height="61" version="1.1" viewBox="0 0 169 61"><title>Group 5</title><desc>Created with Sketch.</desc><g id="Page-1" fill="none" fill-rule="evenodd" stroke="none" stroke-width="1"><g id="Artboard-1-Copy-5" transform="translate(-341.000000, -1632.000000)"><g id="Group-5" transform="translate(341.000000, 1632.000000)"><g id="Rectangle-138-Copy-10-+-Imported-Layers-Copy-Copy"><rect id="Rectangle-138-Copy-10" width="60" height="60.488" x="0" y="0" fill="#FA4" rx="15"/><g id="Imported-Layers-Copy" fill="#FFF" transform="translate(12.000000, 12.000000)"><path id="Fill-1" d="M13.1574375,18.9002967 L2.826125,23.9811463 C0.6856875,25.3955528 -0.3866875,28.3924715 0.428375,30.6778394 L0.8495625,31.8502317 L14.084625,31.8748679 L13.1574375,18.9002967"/><path id="Fill-2" d="M21.40725,18.9002967 L31.737125,23.9811463 C33.879,25.3955528 34.9499375,28.3924715 34.134875,30.6778394 L33.7136875,31.8502317 L20.478625,31.8748679 L21.40725,18.9002967"/><path id="Fill-3" d="M18.333875,18.7133516 L18.333875,32.7182947 L17.264375,33.7964898 L16.194875,32.7182947 L16.194875,18.7133516 L18.333875,18.7133516"/><path id="Fill-4" d="M17.4440625,16.4091443 C21.6329375,16.4091443 25.061375,12.9542825 25.061375,8.73135163 C25.061375,4.50842073 21.6329375,1.05210976 17.4440625,1.05210976 C13.2551875,1.05210976 9.8281875,4.50842073 9.8281875,8.73135163 C9.8281875,12.9542825 13.2551875,16.4091443 17.4440625,16.4091443"/></g></g><g id="bhi_arrow-right" fill="#010101" opacity=".315" transform="translate(90.000000, 20.000000)"><g id="Layer_1"><g id="arrow-forward_1_"><path id="Shape" d="M10.0194932,0.0233918129 L8.27680312,1.76608187 L15.2475634,8.73684211 L0.0155945419,8.73684211 L0.0155945419,11.2241715 L15.2475634,11.2241715 L8.27680312,18.1949318 L10.0194932,19.9376218 L19.9766082,9.98050682 L10.0194932,0.0233918129 Z"/></g></g></g><g id="Group-3" transform="translate(141.000000, 16.000000)"><rect id="Rectangle-515-Copy-5" width="28" height="28" x="0" y="0" fill="#FA4" rx="15"/><g id="Imported-Layers-Copy" fill="#FFF" transform="translate(6.750000, 5.821138)"><path id="Fill-1" d="M5.720625,8.21752033 L1.22875,10.4265854 C0.298125,11.0415447 -0.168125,12.3445528 0.18625,13.3381911 L0.369375,13.8479268 L6.12375,13.8586382 L5.720625,8.21752033"/><path id="Fill-2" d="M9.3075,8.21752033 L13.79875,10.4265854 C14.73,11.0415447 15.195625,12.3445528 14.84125,13.3381911 L14.658125,13.8479268 L8.90375,13.8586382 L9.3075,8.21752033"/><path id="Fill-3" d="M7.97125,8.13623984 L7.97125,14.2253455 L7.50625,14.694126 L7.04125,14.2253455 L7.04125,8.13623984 L7.97125,8.13623984"/><path id="Fill-4" d="M7.584375,7.13441057 C9.405625,7.13441057 10.89625,5.63229675 10.89625,3.79623984 C10.89625,1.96018293 9.405625,0.457439024 7.584375,0.457439024 C5.763125,0.457439024 4.273125,1.96018293 4.273125,3.79623984 C4.273125,5.63229675 5.763125,7.13441057 7.584375,7.13441057"/></g></g></g></g></g></svg>