<svg xmlns="http://www.w3.org/2000/svg" xmlns:xlink="http://www.w3.org/1999/xlink" width="74" height="76" version="1.1" viewBox="0 0 74 76"><title>Iconography - Padding - Dont</title><desc>Created with Sketch.</desc><g id="Images" fill="none" fill-rule="evenodd" stroke="none" stroke-width="1"><g id="Iconography---Padding---Dont"><g id="Rectangle-138-Copy-5-+-Imported-Layers" transform="translate(7.000000, 8.000000)"><rect id="Rectangle-138-Copy-5" width="60" height="60.488" x="0" y="0" fill="#F6B042" rx="15"/><g id="Imported-Layers" fill="#FFF" transform="translate(5.000000, 7.000000)"><path id="Fill-1" d="M18.5033519,26.5795555 L3.97438979,33.7247727 C0.964284806,35.7138576 -0.543800027,39.9284352 0.602425309,43.1423563 L1.19474281,44.7910958 L19.807259,44.8257418 L18.5033519,26.5795555"/><path id="Fill-2" d="M30.1050929,26.5795555 L44.6320334,33.7247727 C47.64416,35.7138576 49.1502233,39.9284352 48.0039979,43.1423563 L47.4116804,44.7910958 L28.7991643,44.8257418 L30.1050929,26.5795555"/><path id="Fill-3" d="M25.7829946,26.3166539 L25.7829946,46.011856 L24.2789529,47.5281257 L22.7749112,46.011856 L22.7749112,26.3166539 L25.7829946,26.3166539"/><path id="Fill-4" d="M24.5316481,23.0762389 C30.4224781,23.0762389 35.2439021,18.2176543 35.2439021,12.2789313 C35.2439021,6.34020835 30.4224781,1.47958575 24.5316481,1.47958575 C18.640818,1.47958575 13.8214156,6.34020835 13.8214156,12.2789313 C13.8214156,18.2176543 18.640818,23.0762389 24.5316481,23.0762389"/></g></g></g></g></svg>