<svg xmlns="http://www.w3.org/2000/svg" xmlns:xlink="http://www.w3.org/1999/xlink" width="169" height="61" version="1.1" viewBox="0 0 169 61"><title>Group 6</title><desc>Created with Sketch.</desc><g id="Page-1" fill="none" fill-rule="evenodd" stroke="none" stroke-width="1"><g id="Artboard-1-Copy-5" transform="translate(-672.000000, -1632.000000)"><g id="Group-6" transform="translate(672.000000, 1632.000000)"><g id="Rectangle-138-Copy-10-+-Imported-Layers-Copy-Copy-Copy"><rect id="Rectangle-138-Copy-10" width="60" height="60.488" x="0" y="0" fill="#FA4" rx="15"/><g id="Imported-Layers-Copy" fill="#FFF" transform="translate(12.000000, 12.000000)"><path id="Fill-1" d="M13.1574375,18.9002967 L2.826125,23.9811463 C0.6856875,25.3955528 -0.3866875,28.3924715 0.428375,30.6778394 L0.8495625,31.8502317 L14.084625,31.8748679 L13.1574375,18.9002967"/><path id="Fill-2" d="M21.40725,18.9002967 L31.737125,23.9811463 C33.879,25.3955528 34.9499375,28.3924715 34.134875,30.6778394 L33.7136875,31.8502317 L20.478625,31.8748679 L21.40725,18.9002967"/><path id="Fill-3" d="M18.333875,18.7133516 L18.333875,32.7182947 L17.264375,33.7964898 L16.194875,32.7182947 L16.194875,18.7133516 L18.333875,18.7133516"/><path id="Fill-4" d="M17.4440625,16.4091443 C21.6329375,16.4091443 25.061375,12.9542825 25.061375,8.73135163 C25.061375,4.50842073 21.6329375,1.05210976 17.4440625,1.05210976 C13.2551875,1.05210976 9.8281875,4.50842073 9.8281875,8.73135163 C9.8281875,12.9542825 13.2551875,16.4091443 17.4440625,16.4091443"/></g></g><g id="bhi_arrow-right-copy-2" fill="#010101" opacity=".315" transform="translate(90.000000, 20.000000)"><g id="Layer_1"><g id="arrow-forward_1_"><path id="Shape" d="M10.0194932,0.0233918129 L8.27680312,1.76608187 L15.2475634,8.73684211 L0.0155945419,8.73684211 L0.0155945419,11.2241715 L15.2475634,11.2241715 L8.27680312,18.1949318 L10.0194932,19.9376218 L19.9766082,9.98050682 L10.0194932,0.0233918129 Z"/></g></g></g><g id="Group-4" transform="translate(141.000000, 16.000000)"><rect id="Rectangle-515-Copy-7" width="28" height="28" x="0" y="0" fill="#FA4" rx="6.563"/><g id="Imported-Layers-Copy-2" fill="#FFF" transform="translate(6.000000, 6.000000)"><path id="Fill-1" d="M6.102,8.76535501 L1.31066667,11.1216911 C0.318,11.7776477 -0.179333333,13.167523 0.198666667,14.2274038 L0.394,14.771122 L6.532,14.7825474 L6.102,8.76535501"/><path id="Fill-2" d="M9.928,8.76535501 L14.7186667,11.1216911 C15.712,11.7776477 16.2086667,13.167523 15.8306667,14.2274038 L15.6353333,14.771122 L9.49733333,14.7825474 L9.928,8.76535501"/><path id="Fill-3" d="M8.50266667,8.67865583 L8.50266667,15.1737019 L8.00666667,15.6737344 L7.51066667,15.1737019 L7.51066667,8.67865583 L8.50266667,8.67865583"/><path id="Fill-4" d="M8.09,7.61003794 C10.0326667,7.61003794 11.6226667,6.0077832 11.6226667,4.04932249 C11.6226667,2.09086179 10.0326667,0.487934959 8.09,0.487934959 C6.14733333,0.487934959 4.558,2.09086179 4.558,4.04932249 C4.558,6.0077832 6.14733333,7.61003794 8.09,7.61003794"/></g></g></g></g></g></svg>