<svg xmlns="http://www.w3.org/2000/svg" xmlns:xlink="http://www.w3.org/1999/xlink" width="270" height="475" version="1.1" viewBox="0 0 270 475"><title>Mobile Example</title><desc>Created with Sketch.</desc><defs><filter id="filter-1" width="200%" height="200%" x="-50%" y="-50%" filterUnits="objectBoundingBox"><feOffset dx="0" dy="2" in="SourceAlpha" result="shadowOffsetOuter1"/><feGaussianBlur in="shadowOffsetOuter1" result="shadowBlurOuter1" stdDeviation="2"/><feColorMatrix in="shadowBlurOuter1" result="shadowMatrixOuter1" type="matrix" values="0 0 0 0 0 0 0 0 0 0 0 0 0 0 0 0 0 0 0.175 0"/><feMerge><feMergeNode in="shadowMatrixOuter1"/><feMergeNode in="SourceGraphic"/></feMerge></filter><filter id="filter-2" width="200%" height="200%" x="-50%" y="-50%" filterUnits="objectBoundingBox"><feOffset dx="0" dy="2" in="SourceAlpha" result="shadowOffsetOuter1"/><feGaussianBlur in="shadowOffsetOuter1" result="shadowBlurOuter1" stdDeviation="2"/><feColorMatrix in="shadowBlurOuter1" result="shadowMatrixOuter1" type="matrix" values="0 0 0 0 0 0 0 0 0 0 0 0 0 0 0 0 0 0 0.175 0"/><feMerge><feMergeNode in="shadowMatrixOuter1"/><feMergeNode in="SourceGraphic"/></feMerge></filter><filter id="filter-3" width="200%" height="200%" x="-50%" y="-50%" filterUnits="objectBoundingBox"><feOffset dx="0" dy="2" in="SourceAlpha" result="shadowOffsetOuter1"/><feGaussianBlur in="shadowOffsetOuter1" result="shadowBlurOuter1" stdDeviation="2"/><feColorMatrix in="shadowBlurOuter1" result="shadowMatrixOuter1" type="matrix" values="0 0 0 0 0 0 0 0 0 0 0 0 0 0 0 0 0 0 0.175 0"/><feMerge><feMergeNode in="shadowMatrixOuter1"/><feMergeNode in="SourceGraphic"/></feMerge></filter></defs><g id="--Images" fill="none" fill-rule="evenodd" stroke="none" stroke-width="1"><g id="Mobile-Example"><g id="Group-8" transform="translate(-2.000000, 0.000000)"><g id="Group-Copy-9" transform="translate(0.000000, 0.488281)"><g id="Rectangle-158-+-Rectangle-158-Copy-2-+-Rectangle-158-Copy-3" transform="translate(0.648438, 0.187786)"><path id="Rectangle-158-Copy-3" fill="#E2E2E2" d="M0.72265625,0.999999469 L274,1.00001451 L274,474.504193 L0.72265625,474.504178 L0.72265625,0.999999469 Z"/><path id="Rectangle-158-Copy-3" fill="#B56" d="M0.72265625,-1.17648503e-07 L274,3.01471758e-06 L274,98.6162109 L0.72265625,98.6162078 L0.72265625,-1.17648503e-07 Z" filter="url(#filter-1)"/><path id="Rectangle-158-Copy-3" fill="#A03B4C" d="M0.72265625,75.9794922 L274,75.9794929 L274,98.6162109 L0.72265625,98.6162102 L0.72265625,75.9794922 Z"/></g></g><g id="Group-7" transform="translate(12.000000, 116.132812)"><path id="Rectangle-158-Copy-3" fill="#FFF" d="M0.728515625,5.58261245 C0.728515625,2.82464297 2.96235082,0.58886702 5.72796616,0.588867091 L245.305237,0.588873189 C248.066357,0.588873259 250.304688,2.834967 250.304688,5.5826188 L250.304688,195.595122 C250.304688,198.353091 248.070852,200.588867 245.305237,200.588867 L5.72796616,200.588861 C2.96684587,200.588861 0.728515625,198.342767 0.728515625,195.595115 L0.728515625,5.58261245 Z" filter="url(#filter-2)"/><rect id="Rectangle-161-Copy" width="121" height="11.084" x="13.9" y="12.247" fill="#E2E2E2"/><rect id="Rectangle-161-Copy-3" width="12.504" height="11.084" x="226.842" y="12.247" fill="#E2E2E2"/><rect id="Rectangle-161-Copy-4" width="12.504" height="11.084" x="209.77" y="12.247" fill="#E2E2E2"/><rect id="Rectangle-161-Copy-5" width="12.504" height="11.084" x="192.77" y="12.247" fill="#E2E2E2"/></g><g id="Group-7-Copy" transform="translate(12.000000, 336.132812)"><path id="Rectangle-158-Copy-3" fill="#FFF" d="M0.728515625,5.58503985 C0.728515625,2.82572978 2.96235082,0.588867047 5.72796616,0.588867091 L245.305237,0.588870843 C248.066357,0.588870886 250.304688,2.83006246 250.304688,5.58504375 L250.304688,118.663983 C250.304688,121.423294 248.070852,123.660156 245.305237,123.660156 L5.72796616,123.660152 C2.96684587,123.660152 0.728515625,121.418961 0.728515625,118.66398 L0.728515625,5.58503985 Z" filter="url(#filter-3)"/><rect id="Rectangle-161-Copy" width="121" height="11.084" x="13.9" y="12.247" fill="#E2E2E2"/><rect id="Rectangle-161-Copy-3" width="12.504" height="11.084" x="226.842" y="12.247" fill="#E2E2E2"/><rect id="Rectangle-161-Copy-4" width="12.504" height="11.084" x="209.77" y="12.247" fill="#E2E2E2"/><rect id="Rectangle-161-Copy-5" width="12.504" height="11.084" x="192.77" y="12.247" fill="#E2E2E2"/></g><rect id="Rectangle-441" width="111" height="11.102" x="23" y="17.074" fill="#FFF"/><rect id="Rectangle-441-Copy" width="30.789" height="5.418" x="23" y="36.021" fill="#FFF"/><rect id="Rectangle-441-Copy-2" width="30.789" height="5.418" x="23" y="49.285" fill="#FFF"/><rect id="Rectangle-441-Copy-3" width="30.789" height="5.418" x="42.395" y="86.523" fill="#FFF"/><rect id="Rectangle-441-Copy-4" width="30.789" height="5.418" x="195" y="86.523" fill="#D7B4B4"/></g></g></g></svg>