<svg xmlns="http://www.w3.org/2000/svg" xmlns:xlink="http://www.w3.org/1999/xlink" width="716" height="501" version="1.1" viewBox="0 0 716 501"><title>Layout - Mainframe - Cards - Dashboard</title><desc>Created with Sketch.</desc><defs><filter id="filter-1" width="200%" height="200%" x="-50%" y="-50%" filterUnits="objectBoundingBox"><feOffset dx="0" dy="2" in="SourceAlpha" result="shadowOffsetOuter1"/><feGaussianBlur in="shadowOffsetOuter1" result="shadowBlurOuter1" stdDeviation="2"/><feColorMatrix in="shadowBlurOuter1" result="shadowMatrixOuter1" type="matrix" values="0 0 0 0 0 0 0 0 0 0 0 0 0 0 0 0 0 0 0.175 0"/><feMerge><feMergeNode in="shadowMatrixOuter1"/><feMergeNode in="SourceGraphic"/></feMerge></filter><filter id="filter-2" width="200%" height="200%" x="-50%" y="-50%" filterUnits="objectBoundingBox"><feOffset dx="0" dy="2" in="SourceAlpha" result="shadowOffsetOuter1"/><feGaussianBlur in="shadowOffsetOuter1" result="shadowBlurOuter1" stdDeviation="2"/><feColorMatrix in="shadowBlurOuter1" result="shadowMatrixOuter1" type="matrix" values="0 0 0 0 0 0 0 0 0 0 0 0 0 0 0 0 0 0 0.175 0"/><feMerge><feMergeNode in="shadowMatrixOuter1"/><feMergeNode in="SourceGraphic"/></feMerge></filter><filter id="filter-3" width="200%" height="200%" x="-50%" y="-50%" filterUnits="objectBoundingBox"><feOffset dx="0" dy="2" in="SourceAlpha" result="shadowOffsetOuter1"/><feGaussianBlur in="shadowOffsetOuter1" result="shadowBlurOuter1" stdDeviation="2"/><feColorMatrix in="shadowBlurOuter1" result="shadowMatrixOuter1" type="matrix" values="0 0 0 0 0 0 0 0 0 0 0 0 0 0 0 0 0 0 0.175 0"/><feMerge><feMergeNode in="shadowMatrixOuter1"/><feMergeNode in="SourceGraphic"/></feMerge></filter></defs><g id="--Images" fill="none" fill-rule="evenodd" stroke="none" stroke-width="1"><g id="Layout---Mainframe---Cards---Dashboard"><g id="Group"><g transform="translate(0.000000, 0.687786)"><rect id="Bowling-Alley-BG" width="99.96" height="474.565" x="0" y="26.95" fill="#F4F4F4"/><g id="Nav---Top-Bar" fill="#2F384F" transform="translate(0.000000, 0.234375)"><rect id="BG" width="716.133" height="27.444" x="0" y="0"/></g><g id="Menu-Button" fill="#181D2C" transform="translate(0.000000, 26.949897)"><rect id="BG" width="99.96" height="26.23" x="0" y="0"/></g><rect id="Bowling-Alley-BG" width="616.172" height="473.839" x="99.96" y="27.675" fill="#C4CDD3" transform="translate(408.046356, 264.595095) scale(-1, 1) translate(-408.046356, -264.595095)"/></g><g id="Rectangle-158-+-Rectangle-158-Copy-2-+-Rectangle-158-Copy-3" fill="#FFF" transform="translate(124.000000, 56.000000)"><path id="Rectangle-158" d="M0.72265625,4.99374537 C0.72265625,2.2357759 2.9548189,-8.49979265e-08 5.7247904,-5.36468841e-08 L556.997866,6.18576227e-06 C559.760468,6.21702991e-06 562,2.24609992 562,4.99375173 L562,195.006255 C562,197.764224 559.767837,200 556.997866,200 L5.7247904,199.999994 C2.96218799,199.999994 0.72265625,197.7539 0.72265625,195.006248 L0.72265625,4.99374537 Z" filter="url(#filter-1)"/><path id="Rectangle-158-Copy-2" d="M0.72265625,221.993745 C0.72265625,219.235776 2.96255514,217 5.72870753,217 L268.993949,217.000006 C271.758714,217.000006 274,219.2461 274,221.993752 L274,412.006255 C274,414.764224 271.760101,417 268.993949,417 L5.72870753,416.999994 C2.96394175,416.999994 0.72265625,414.7539 0.72265625,412.006248 L0.72265625,221.993745 Z" filter="url(#filter-2)"/><path id="Rectangle-158-Copy-3" d="M288.722656,221.993745 C288.722656,219.235776 290.962555,217 293.728708,217 L556.993949,217.000006 C559.758714,217.000006 562,219.2461 562,221.993752 L562,412.006255 C562,414.764224 559.760101,417 556.993949,417 L293.728708,416.999994 C290.963942,416.999994 288.722656,414.7539 288.722656,412.006248 L288.722656,221.993745 Z" filter="url(#filter-3)"/></g><rect id="Rectangle-161" width="121" height="11.084" x="138.5" y="284.658" fill="#E2E2E2"/><rect id="Rectangle-161-Copy-3" width="12.504" height="11.084" x="375.572" y="284.658" fill="#E2E2E2"/><rect id="Rectangle-161-Copy-4" width="12.504" height="11.084" x="358.5" y="284.658" fill="#E2E2E2"/><rect id="Rectangle-161-Copy-5" width="12.504" height="11.084" x="341.5" y="284.658" fill="#E2E2E2"/><rect id="Rectangle-161-Copy-2" width="158.104" height="11.084" x="138.5" y="66.729" fill="#E2E2E2"/><rect id="Rectangle-161-Copy" width="121" height="11.084" x="426.729" y="284.658" fill="#E2E2E2"/><rect id="Rectangle-161-Copy-3" width="12.504" height="11.084" x="663.801" y="284.658" fill="#E2E2E2"/><rect id="Rectangle-161-Copy-4" width="12.504" height="11.084" x="646.729" y="284.658" fill="#E2E2E2"/><rect id="Rectangle-161-Copy-5" width="12.504" height="11.084" x="629.729" y="284.658" fill="#E2E2E2"/><rect id="Rectangle-161-Copy-3" width="12.504" height="11.084" x="663.549" y="66.729" fill="#E2E2E2"/><rect id="Rectangle-161-Copy-4" width="12.504" height="11.084" x="646.477" y="66.729" fill="#E2E2E2"/><rect id="Rectangle-161-Copy-5" width="12.504" height="11.084" x="629.477" y="66.729" fill="#E2E2E2"/></g></g></g></svg>