<svg xmlns="http://www.w3.org/2000/svg" xmlns:xlink="http://www.w3.org/1999/xlink" width="628" height="192" version="1.1" viewBox="0 0 628 192"><title>Layout - Great for Juggling</title><desc>Created with Sketch.</desc><g id="--Images" fill="none" fill-rule="evenodd" stroke="none" stroke-width="1"><g id="Layout---Great-for-Juggling"><g id="Group" transform="translate(23.000000, 13.000000)"><rect id="Rectangle-52" width="21.847" height="83.832" x="0" y="43.785" fill="#CCCDCC" opacity=".5" rx="2"/><g fill="#38C6C2" opacity=".5" transform="translate(178.385191, 107.231449)"><rect id="Rectangle-52-Copy-17" width="39.587" height="27.944" x="47.222" y="2.148" rx="2"/><rect id="Rectangle-52-Copy-18" width="39.587" height="58.371" x=".286" y=".906" rx="2"/><rect id="Rectangle-52-Copy-19" width="84.997" height="4" x="47.222" y="35.836" rx="1"/><rect id="Rectangle-52-Copy-23" width="19.794" height="4" x="90.665" y="12.878" rx="1"/><rect id="Rectangle-52-Copy-22" width="39.587" height="4" x="90.665" y="2.148" rx="1"/><rect id="Rectangle-52-Copy-20" width="58.996" height="4" x="47.222" y="45.963" rx="1"/></g><g id="Group-Copy" fill="#38C6C2" opacity=".5" transform="translate(437.700423, 48.734359)"><rect id="Rectangle-52-Copy-17" width="39.587" height="27.944" x="47.222" y=".148" rx="2"/><rect id="Rectangle-52-Copy-25" width="39.587" height="27.944" x=".286" y=".148" rx="2"/><rect id="Rectangle-52-Copy-26" width="39.587" height="27.944" x=".286" y="33.991" rx="2"/><rect id="Rectangle-52-Copy-27" width="39.587" height="27.944" x="47.222" y="33.991" rx="2"/><rect id="Rectangle-52-Copy-23" width="19.794" height="4" x="90.665" y="33.991" rx="1"/><rect id="Rectangle-52-Copy-22" width="39.587" height="4" x="90.665" y="2.148" rx="1"/><rect id="Rectangle-52-Copy-28" width="39.587" height="4" x="90.665" y="12.12" rx="1"/><rect id="Rectangle-52-Copy-29" width="39.587" height="4" x="90.665" y="24.092" rx="1"/></g><g fill="#38C6C2" opacity=".5" transform="translate(226.310973, 0.818359)"><rect id="Rectangle-52-Copy-8" width="39.587" height="27.944" x=".286" y="34.938" rx="2"/><rect id="Rectangle-52-Copy-6" width="39.587" height="27.944" x="90.665" y=".008" rx="2"/><rect id="Rectangle-52-Copy-10" width="83.139" height="4" x="47.222" y="34.938" rx="1"/><rect id="Rectangle-52-Copy-16" width="66.179" height="4" x=".286" y=".008" rx="1"/><rect id="Rectangle-52-Copy-11" width="76.087" height="4" x="47.222" y="45.065" rx="1"/><rect id="Rectangle-52-Copy-21" width="57.568" height="4" x=".286" y="10.135" rx="1"/><rect id="Rectangle-52-Copy-12" width="52.752" height="4" x="47.222" y="54.38" rx="1"/><rect id="Rectangle-52-Copy-24" width="27.757" height="4" x=".286" y="20.952" rx="1"/></g><path id="Path-5" stroke="#CCCDCC" d="M31.8109727,69.2968816 L196.933474,69.2968816 L196.933474,32.2744174 L215.918591,32.2744174"/><path id="Path-6" stroke="#CCCDCC" d="M31.8109727,84.2744174 L416.001574,84.2744174"/><path id="Path-7" stroke="#CCCDCC" d="M31.8109727,100.274417 L152.000426,100.274417 L151.837843,137.372074 L169.943785,137.372074"/><circle id="Oval-1" cx="415.156" cy="84.274" r="2" fill="#CCCDCC"/><circle id="Oval-1-Copy" cx="215" cy="32.274" r="2" fill="#CCCDCC"/><circle id="Oval-1-Copy-2" cx="169.944" cy="137.372" r="2" fill="#CCCDCC"/></g><rect id="Rectangle-216" width="135" height="9" x="49" y="57" fill="#CCCDCC" opacity=".5" rx="2"/></g></g></svg>