<svg xmlns="http://www.w3.org/2000/svg" xmlns:xlink="http://www.w3.org/1999/xlink" id="Layer_1" x="0" y="0" enable-background="new 0 0 252 239" version="1.1" viewBox="0 0 252 239" xml:space="preserve"><style type="text/css">.st0{fill:#2f384f}.st1{fill:#c4cdd3}.st2{fill:#f4f4f4}.st3{fill:#181d2c}.st4{fill:#fff}.st5{fill:#474747}.st6{fill:#fa4}.st7{fill:none;stroke:#e2e2e2}.st8{fill:#aaa}.st9{fill:#625}.st10{fill:#b56}.st11{fill:#4b7}.st12{fill:#39d}</style><rect id="BG" width="253.4" height="27.4" x=".1" y=".3" class="st0"/><rect id="Bowling-Alley-BG_1_" width="251.9" height="213.1" x="2" y="27.8" class="st1"/><g><rect id="Bowling-Alley-BG" width="100" height="213.1" x=".1" y="27" class="st2"/><rect id="BG_1_" width="100" height="26.2" x=".1" y="27" class="st3"/><rect id="BG_2_" width="100" height="26.2" x=".1" y="53" class="st4"/><rect id="Rectangle-235" width="44" height="5.4" x="11.2" y="62.6" class="st5"/><rect id="Rectangle-235-Copy" width="5.1" height="5.4" x="87.4" y="62.6" class="st5"/><rect id="Rectangle-237" width="1.8" height="26.3" x=".2" y="53" class="st6"/><rect id="BG_3_" width="100" height="26.2" x=".1" y="79.1" class="st7"/><rect id="Rectangle-235_1_" width="44" height="5.4" x="11.2" y="88.7" class="st8"/><rect id="Rectangle-237_1_" width="1.8" height="26.3" x=".2" y="79.1" class="st9"/><rect id="BG_4_" width="100" height="26.2" x=".1" y="104.1" class="st7"/><rect id="Rectangle-235_2_" width="44" height="5.4" x="11.2" y="113.7" class="st8"/><rect id="Rectangle-237_2_" width="1.8" height="26.3" x=".2" y="104.1" class="st10"/><rect id="BG_5_" width="100" height="26.2" x=".1" y="129.1" class="st7"/><rect id="Rectangle-235_3_" width="44" height="5.4" x="11.2" y="138.7" class="st8"/><rect id="Rectangle-237_3_" width="1.8" height="26.3" x=".2" y="129.1" class="st11"/><rect id="BG_6_" width="100" height="26.2" x=".1" y="154.1" class="st7"/><rect id="Rectangle-235_4_" width="44" height="5.4" x="11.2" y="163.7" class="st8"/><rect id="Rectangle-237_4_" width="1.8" height="26.3" x=".2" y="154.1" class="st12"/></g></svg>