<svg xmlns="http://www.w3.org/2000/svg" xmlns:xlink="http://www.w3.org/1999/xlink" width="716" height="161" version="1.1" viewBox="0 0 716 161"><title>Layout - Mainframe - Header - Overview</title><desc>Created with Sketch.</desc><g id="--Images" fill="none" fill-rule="evenodd" stroke="none" stroke-width="1"><g id="Layout---Mainframe---Header---Overview"><g id="Group" transform="translate(0.000000, -2.000000)"><g id="Group-Copy-3" transform="translate(0.000000, 0.867474)"><g id="Group" transform="translate(0.000000, 0.687786)"><rect id="Bowling-Alley-BG" width="99.96" height="134" x="0" y="26.95" fill="#F4F4F4"/><g id="Nav---Top-Bar" fill="#2F384F" transform="translate(0.000000, 0.234375)"><rect id="BG" width="716.133" height="27.444" x="0" y="0"/></g><g id="Menu-Button" fill="#181D2C" transform="translate(0.000000, 26.949897)"><rect id="BG" width="99.96" height="26.23" x="0" y="0"/></g><rect id="Bowling-Alley-BG" width="616.172" height="134" x="99.96" y="27.675" fill="#C4CDD3" transform="translate(408.046356, 94.675476) scale(-1, 1) translate(-408.046356, -94.675476)"/></g></g><rect id="Rectangle-199" width="616" height="72" x="100" y="29" fill="#39D"/><rect id="Rectangle-199-Copy" width="616" height="20" x="100" y="101" fill="#2180BF"/><rect id="Rectangle-201" width="104.995" height="16" x="117" y="49" fill="#FFF"/><rect id="Rectangle-201-Copy-4" width="54" height="6.432" x="117" y="86.059" fill="#FFF"/><rect id="Rectangle-201-Copy-5" width="54" height="6.432" x="176.668" y="86.059" fill="#FFF"/><rect id="Rectangle-201-Copy-7" width="20.532" height="6.432" x="117" y="107.784" fill="#FFF"/><rect id="Rectangle-201-Copy-8" width="20.532" height="6.432" x="144" y="107.784" fill="#FFF" opacity=".5"/><rect id="Rectangle-201-Copy-9" width="20.532" height="6.432" x="171" y="107.784" fill="#FFF" opacity=".5"/><rect id="Rectangle-201-Copy-10" width="20.532" height="6.432" x="198" y="107.784" fill="#FFF" opacity=".5"/><rect id="Rectangle-201-Copy-11" width="20.532" height="6.432" x="225" y="107.784" fill="#FFF" opacity=".5"/><rect id="Rectangle-201-Copy-12" width="20.532" height="6.432" x="252" y="107.784" fill="#FFF" opacity=".5"/><rect id="Rectangle-201-Copy-6" width="54" height="6.432" x="235.668" y="86.059" fill="#FFF"/><rect id="Rectangle-201-Copy" width="16.828" height="16" x="682.633" y="49" fill="#FFF"/><rect id="Rectangle-201-Copy-2" width="16.828" height="16" x="655.866" y="49" fill="#FFF"/><rect id="Rectangle-201-Copy-3" width="16.828" height="16" x="629.866" y="49" fill="#FFF"/></g></g></g></svg>