<svg xmlns="http://www.w3.org/2000/svg" xmlns:xlink="http://www.w3.org/1999/xlink" id="Layer_1" x="0" y="0" enable-background="new 0 0 544 311" version="1.1" viewBox="0 0 544 311" xml:space="preserve"><style type="text/css">.st0{fill:#c4cdd3}.st1{fill:#f4f4f4}.st2{fill:#181d2c}.st3{fill:#ccc}.st4{fill:#39d}.st5{fill:#4b7}.st6{fill:#a69}.st7{fill:#625}.st8{fill:#fa4}.st9{fill:#0b344f}.st10{fill:#b56}.st11{fill:#fff}.st12{fill:#2f384f}</style><g><g><g id="Bowling-Alley-BG_1_"><rect width="544" height="284.2" y="27.1" class="st0"/></g><g><g id="Bowling-Alley-BG"><rect width="97.3" height="284.9" y="26.4" class="st1"/></g><g id="BG_1_"><rect width="97.3" height="26.2" y="25.4" class="st2"/></g></g><g><g id="BG_2_"><rect width="207.4" height="284.6" x="97.4" y="25.4" class="st2"/></g><g id="Rectangle-228"><rect width="47.5" height="7" x="250.7" y="32.5" class="st3"/></g><g id="Rectangle-228-Copy"><rect width="47.5" height="7" x="193" y="32.5" class="st3"/></g><g id="Rectangle-219"><path d="M127.6,77.4h17c2.8,0,5,2.2,5,5v17c0,2.8-2.2,5-5,5h-17c-2.8,0-5-2.2-5-5v-17 C122.6,79.6,124.9,77.4,127.6,77.4z" class="st4"/></g><g id="Rectangle-219-Copy-3"><path d="M127.6,143.3h17c2.8,0,5,2.2,5,5v17c0,2.8-2.2,5-5,5h-17c-2.8,0-5-2.2-5-5v-17 C122.6,145.5,124.9,143.3,127.6,143.3z" class="st5"/></g><g id="Rectangle-219-Copy"><path d="M189,77.4h17c2.8,0,5,2.2,5,5v17c0,2.8-2.2,5-5,5h-17c-2.8,0-5-2.2-5-5v-17 C184,79.6,186.3,77.4,189,77.4z" class="st6"/></g><g id="Rectangle-219-Copy-4"><path d="M189,143.3h17c2.8,0,5,2.2,5,5v17c0,2.8-2.2,5-5,5h-17c-2.8,0-5-2.2-5-5v-17 C184,145.5,186.3,143.3,189,143.3z" class="st7"/></g><g id="Rectangle-219-Copy-2"><path d="M250.4,77.4h17c2.8,0,5,2.2,5,5v17c0,2.8-2.2,5-5,5h-17c-2.8,0-5-2.2-5-5v-17 C245.4,79.6,247.7,77.4,250.4,77.4z" class="st8"/></g><g id="Rectangle-219-Copy-5"><path d="M250.4,143.3h17c2.8,0,5,2.2,5,5v17c0,2.8-2.2,5-5,5h-17c-2.8,0-5-2.2-5-5v-17 C245.4,145.5,247.7,143.3,250.4,143.3z" class="st9"/></g><g id="Rectangle-219-Copy-8"><path d="M127.6,209.2h17c2.8,0,5,2.2,5,5v17c0,2.8-2.2,5-5,5h-17c-2.8,0-5-2.2-5-5v-17 C122.6,211.4,124.9,209.2,127.6,209.2z" class="st10"/></g><g id="Rectangle-219-Copy-7"><path d="M206,237.2h-17c-3.3,0-6-2.7-6-6v-17c0-3.3,2.7-6,6-6h17c3.3,0,6,2.7,6,6v17 C212,234.5,209.3,237.2,206,237.2z M189,210.2c-2.2,0-4,1.8-4,4v17c0,2.2,1.8,4,4,4h17c2.2,0,4-1.8,4-4v-17c0-2.2-1.8-4-4-4H189 z" class="st11"/></g><g id="Rectangle-219-Copy-6"><path d="M267.4,237.2h-17c-3.3,0-6-2.7-6-6v-17c0-3.3,2.7-6,6-6h17c3.3,0,6,2.7,6,6v17 C273.4,234.5,270.7,237.2,267.4,237.2z M250.4,210.2c-2.2,0-4,1.8-4,4v17c0,2.2,1.8,4,4,4h17c2.2,0,4-1.8,4-4v-17 c0-2.2-1.8-4-4-4H250.4z" class="st11"/></g></g></g><g id="BG"><rect width="544" height="27.4" y="-.3" class="st12"/></g></g></svg>