<svg xmlns="http://www.w3.org/2000/svg" xmlns:xlink="http://www.w3.org/1999/xlink" width="716" height="133" version="1.1" viewBox="0 0 716 133"><title>Layout - Mainframe - Header - List</title><desc>Created with Sketch.</desc><g id="--Images" fill="none" fill-rule="evenodd" stroke="none" stroke-width="1"><g id="Layout---Mainframe---Header---List"><g id="Group-Copy" transform="translate(0.000000, -3.500000)"><g id="Group-Copy-3" transform="translate(0.000000, 0.867474)"><g id="Group" transform="translate(0.000000, 0.687786)"><g id="Nav---Top-Bar" transform="translate(0.000000, 0.234375)"><rect id="Bowling-Alley-BG" width="99.96" height="134" x="0" y=".443" fill="#F4F4F4"/><rect id="Bowling-Alley-BG" width="616.172" height="134" x="99.96" y=".766" fill="#C4CDD3"/><rect id="BG" width="716.133" height="27.444" x="0" y="2" fill="#2F384F"/></g><g id="Menu-Button" fill="#181D2C" transform="translate(0.000000, 28.949897)"><rect id="BG" width="99.96" height="26.23" x="0" y="0"/></g></g></g><rect id="Rectangle-199" width="616" height="56.412" x="100" y="31" fill="#FFF"/><rect id="Rectangle-201" width="73.946" height="16" x="143.049" y="51" fill="#474747"/><rect id="Rectangle-201-Copy-4" width="34.125" height="6.432" x="252.875" y="57" fill="#474747"/><rect id="Rectangle-201-Copy-13" width="34.125" height="6.432" x="293.875" y="57" fill="#474747"/><rect id="Rectangle-201-Copy-14" width="34.125" height="6.432" x="334.875" y="57" fill="#474747"/><rect id="Rectangle-201-Copy" width="16.828" height="16" x="682.633" y="51" fill="#474747"/><rect id="Rectangle-201-Copy-2" width="16.828" height="16" x="655.866" y="51" fill="#474747"/><rect id="Rectangle-201-Copy-3" width="16.828" height="16" x="629.866" y="51" fill="#474747"/><rect id="Rectangle-201" width="16.828" height="16" x="117" y="51" fill="#FA4"/></g></g></g></svg>