<svg xmlns="http://www.w3.org/2000/svg" xmlns:xlink="http://www.w3.org/1999/xlink" width="292" height="192" version="1.1" viewBox="0 0 292 192"><title>Loading - Page Icon</title><desc>Created with Sketch.</desc><defs><path id="path-1" d="M29.50529,6.8820437 C29.50529,6.8820437 0.500315927,1.12428174 0.500315927,0.69604418 C3.27519135,21.4949366 15.2068384,37.1338083 29.5052907,37.1338083 C43.6082189,37.1338083 55.408629,21.9197195 58.391311,1.5463657 C58.3913099,1.54636567 29.50529,6.8820437 29.50529,6.8820437 Z"/></defs><g id="--Images" fill="none" fill-rule="evenodd" stroke="none" stroke-width="1"><g id="Loading---Page-Icon-"><g id="Group" transform="translate(140.522063, 96.161596) rotate(-345.000000) translate(-140.522063, -96.161596) translate(97.522063, 38.161596)"><path id="Path-346" stroke="#EB6845" d="M0.784063014,0.971762948 L85.2273981,0.971762948 L75.9685782,12.0626907 L9.70148847,12.0626907 L0.784063014,0.971762948 Z"/><path id="Path-346" stroke="#EB6845" d="M0.784063014,103.926365 L85.2273981,103.926365 L75.9685782,115.017292 L9.70148847,115.017292 L0.784063014,103.926365 Z" transform="translate(43.005731, 109.471828) scale(1, -1) translate(-43.005731, -109.471828)"/><path id="Oval-12" stroke="#AAA" d="M42.8169684,58.2891452 C59.1722309,58.2891452 72.4307909,37.8274131 72.4307909,12.5865873 C72.4307909,12.5865873 13.203146,12.5865873 13.203146,12.5865873 C13.203146,37.8274131 26.4617059,58.2891452 42.8169684,58.2891452 Z"/><path id="Oval-12" stroke="#AAA" d="M42.8169684,103.545025 C59.1722309,103.545025 72.4307909,83.0832927 72.4307909,57.8424669 C72.4307909,57.8424669 13.203146,57.8424669 13.203146,57.8424669 C13.203146,83.0832927 26.4617059,103.545025 42.8169684,103.545025 Z" transform="translate(42.816968, 80.693746) scale(1, -1) translate(-42.816968, -80.693746)"/><path id="Path-348" fill="#39D" d="M31.7244646,103.718149 L43.3658125,91.2055361 L53.6460321,103.718149 L31.7244646,103.718149 Z"/><g transform="translate(13.203146, 21.794576)"><mask id="mask-2" fill="#fff"><use xlink:href="#path-1"/></mask><use id="Mask" stroke="#39D" xlink:href="#path-1"/><g stroke="#39D" stroke-linecap="square" mask="url(#mask-2)"><g transform="translate(-178.823390, -54.089325)"><path id="Line" d="M0.478491476,1.09412849 L185.781744,200.409826 L579.9429,56.8501768"/><path id="Line-Copy-8" d="M12.102715,1.09412849 L197.405968,200.409826"/><path id="Line-Copy-9" d="M23.7120421,1.09412849 L209.015295,200.409826"/><path id="Line-Copy-10" d="M35.3213692,1.09412849 L220.624622,200.409826"/><path id="Line-Copy-11" d="M46.9306963,1.09412849 L232.233949,200.409826"/><path id="Line-Copy-12" d="M58.5400234,1.09412849 L243.843276,200.409826"/><path id="Line-Copy-13" d="M70.1493505,1.09412849 L255.452603,200.409826"/><path id="Line-Copy-14" d="M81.7586776,1.09412849 L267.06193,200.409826"/><path id="Line-Copy-15" d="M93.3680048,1.09412849 L278.671257,200.409826"/><path id="Line-Copy-16" d="M104.977332,1.09412849 L290.280584,200.409826"/><path id="Line-Copy-18" d="M116.586659,1.09412849 L301.889912,200.409826"/><path id="Line-Copy-19" d="M128.195986,1.09412849 L313.499239,200.409826"/><path id="Line-Copy-20" d="M139.805313,1.09412849 L325.108566,200.409826"/><path id="Line-Copy-21" d="M151.41464,1.09412849 L336.717893,200.409826"/><path id="Line-Copy-22" d="M163.023967,1.09412849 L348.32722,200.409826"/><path id="Line-Copy-23" d="M174.633295,1.09412849 L359.936547,200.409826"/><path id="Line-Copy-24" d="M186.242622,1.09412849 L371.545874,200.409826"/><path id="Line-Copy-25" d="M197.851949,1.09412849 L383.155201,200.409826"/><path id="Line-Copy-26" d="M209.461276,1.09412849 L394.764528,200.409826"/><path id="Line-Copy-27" d="M221.070603,1.09412849 L406.373856,200.409826"/><path id="Line-Copy-28" d="M232.67993,1.09412849 L417.983183,200.409826"/><path id="Line-Copy-29" d="M244.289257,1.09412849 L429.59251,200.409826"/><path id="Line-Copy-30" d="M255.898584,1.09412849 L441.201837,200.409826"/><path id="Line-Copy-31" d="M267.507911,1.09412849 L452.811164,200.409826"/><path id="Line-Copy-32" d="M279.117239,1.09412849 L464.420491,200.409826"/><path id="Line-Copy-33" d="M290.726566,1.09412849 L476.029818,200.409826"/><path id="Line-Copy-34" d="M302.335893,1.09412849 L487.639145,200.409826"/><path id="Line-Copy-35" d="M313.94522,1.09412849 L499.248472,200.409826"/><path id="Line-Copy-36" d="M325.554547,1.09412849 L510.8578,200.409826"/></g></g></g><rect id="Rectangle-214" width="2.922" height="11.091" x="39.539" y="64.787" fill="#39D" rx="100"/><rect id="Rectangle-214-Copy" width="2.922" height="11.091" x="45.556" y="75.723" fill="#39D" rx="100"/></g></g></g></svg>