<svg xmlns="http://www.w3.org/2000/svg" xmlns:xlink="http://www.w3.org/1999/xlink" width="245" height="149" version="1.1" viewBox="0 0 245 149"><title>ModalsPageIcon</title><desc>Created with Sketch.</desc><defs><rect id="path-1" width="187" height="130" x=".543" y=".812" rx="3"/><rect id="path-3" width="187" height="130" x=".543" y=".812" rx="3"/></defs><g id="Page-1" fill="none" fill-rule="evenodd" stroke="none" stroke-width="1"><g id="Artboard-1" transform="translate(-2.000000, -2.000000)"><g id="ModalsPageIcon" transform="translate(2.000000, 1.000000)"><g id="--Images"><g id="Modals---Page-Icon"><g id="Group" stroke="#AAA" transform="translate(4.167969, 1.858887)"><rect id="Rectangle-245" width="69.889" height="50.523" x="170.111" y="97" rx="3"/><path id="Path-110" stroke-dasharray="8" d="M0.33203125,130.641113 L169.611328,146.5"/><path id="Path-110-Copy" stroke-dasharray="8" d="M180.332031,127.641113 L239.5,146.5"/><path id="Path-110-Copy-2" stroke-dasharray="8" d="M182.332031,0.641113281 L238.5,98.5"/></g><g id="Group" transform="translate(0.167969, 0.858887)"><g id="mask-2" fill="#FFF"><rect id="path-1" width="187" height="130" x=".543" y=".812" rx="3"/></g><g id="Mask" fill="#FFF" stroke="#39D"><rect id="path-1" width="187" height="130" x=".543" y=".812" rx="3"/></g><g id="Clipped"><mask id="mask-2" fill="#fff"><use xlink:href="#path-1"/></mask><g id="Group" mask="url(#mask-2)"><g><g transform="translate(-203.000000, -39.000000)"><path id="Line" stroke="#39D" d="M0.526287935,0.812011719 L208.026883,208.312607"/><path id="Line-Copy-8" stroke="#39D" d="M13.5429688,0.812011719 L221.043564,208.312607"/><path id="Line-Copy-9" stroke="#39D" d="M26.5429688,0.812011719 L234.043564,208.312607"/><path id="Line-Copy-10" stroke="#39D" d="M39.5429688,0.812011719 L247.043564,208.312607"/><path id="Line-Copy-11" stroke="#39D" d="M52.5429688,0.812011719 L260.043564,208.312607"/><path id="Line-Copy-12" stroke="#39D" d="M65.5429688,0.812011719 L273.043564,208.312607"/><path id="Line-Copy-13" stroke="#39D" d="M78.5429688,0.812011719 L286.043564,208.312607"/><path id="Line-Copy-14" stroke="#39D" d="M91.5429688,0.812011719 L299.043564,208.312607"/><path id="Line-Copy-15" stroke="#39D" d="M104.542969,0.812011719 L312.043564,208.312607"/><path id="Line-Copy-16" stroke="#39D" d="M117.542969,0.812011719 L325.043564,208.312607"/><path id="Line-Copy-18" stroke="#39D" d="M130.542969,0.812011719 L338.043564,208.312607"/><path id="Line-Copy-19" stroke="#39D" d="M143.542969,0.812011719 L351.043564,208.312607"/><path id="Line-Copy-20" stroke="#39D" d="M156.542969,0.812011719 L364.043564,208.312607"/><path id="Line-Copy-21" stroke="#39D" d="M169.542969,0.812011719 L377.043564,208.312607"/><path id="Line-Copy-22" stroke="#39D" d="M182.542969,0.812011719 L390.043564,208.312607"/><path id="Line-Copy-23" stroke="#39D" d="M195.542969,0.812011719 L403.043564,208.312607"/><path id="Line-Copy-24" stroke="#39D" d="M208.542969,0.812011719 L416.043564,208.312607"/><path id="Line-Copy-25" stroke="#39D" d="M221.542969,0.812011719 L429.043564,208.312607"/><path id="Line-Copy-26" stroke="#39D" d="M234.542969,0.812011719 L442.043564,208.312607"/><path id="Line-Copy-27" stroke="#39D" d="M247.542969,0.812011719 L455.043564,208.312607"/><path id="Line-Copy-28" stroke="#39D" d="M260.542969,0.812011719 L468.043564,208.312607"/><path id="Line-Copy-29" stroke="#39D" d="M273.542969,0.812011719 L481.043564,208.312607"/><path id="Line-Copy-30" stroke="#39D" d="M286.542969,0.812011719 L494.043564,208.312607"/><path id="Line-Copy-31" stroke="#39D" d="M299.542969,0.812011719 L507.043564,208.312607"/><path id="Line-Copy-32" stroke="#39D" d="M312.542969,0.812011719 L520.043564,208.312607"/><path id="Line-Copy-33" stroke="#39D" d="M325.542969,0.812011719 L533.043564,208.312607"/><path id="Line-Copy-34" stroke="#39D" d="M338.542969,0.812011719 L546.043564,208.312607"/><path id="Line-Copy-35" stroke="#39D" d="M351.542969,0.812011719 L559.043564,208.312607"/><path id="Line-Copy-36" stroke="#39D" d="M364.542969,0.812011719 L572.043564,208.312607"/></g></g></g></g><g id="Rectangle-253-Clipped"><mask id="mask-4" fill="#fff"><use xlink:href="#path-3"/></mask><rect id="Rectangle-253" width="168" height="90.277" x="12" y="9.227" fill="#FFF" mask="url(#mask-4)" rx="3"/></g></g><rect id="Rectangle-251" width="73" height="18" x="101.822" y="106.547" fill="#39D"/><rect id="Rectangle-251-Copy" width="73" height="18" x="14.357" y="106.547" fill="#FFF" stroke="#39D"/><circle id="Oval-19" cx="106.719" cy="46.012" r="13"/></g></g></g></g></g></svg>