<svg xmlns="http://www.w3.org/2000/svg" xmlns:xlink="http://www.w3.org/1999/xlink" width="292" height="192" version="1.1" viewBox="0 0 292 192"><title>Switches - Page Icon</title><desc>Created with Sketch.</desc><defs><rect id="path-1" width="197.408" height="37.02" x=".688" y="1.221" rx="3"/><rect id="path-3" width="197.408" height="37.02" x=".688" y="1.221" rx="3"/><rect id="path-5" width="197.408" height="37.02" x=".688" y="1.221" rx="3"/></defs><g id="--Images" fill="none" fill-rule="evenodd" stroke="none" stroke-width="1"><g id="Switches---Page-Icon"><g id="Group" transform="translate(46.474121, 24.000000)"><mask id="mask-2" fill="#fff"><use xlink:href="#path-1"/></mask><use id="Mask" stroke="#39D" xlink:href="#path-1"/><g stroke="#39D" stroke-linecap="square" mask="url(#mask-2)"><g transform="translate(-257.372655, -150.193546)"><path id="Line" d="M0.667251838,1.0945384 L263.745966,280.791697"/><path id="Line-Copy-8" d="M17.1703932,1.0945384 L280.249108,280.791697"/><path id="Line-Copy-9" d="M33.6523859,1.0945384 L296.731101,280.791697"/><path id="Line-Copy-10" d="M50.1343786,1.0945384 L313.213093,280.791697"/><path id="Line-Copy-11" d="M66.6163713,1.0945384 L329.695086,280.791697"/><path id="Line-Copy-12" d="M83.098364,1.0945384 L346.177079,280.791697"/><path id="Line-Copy-13" d="M99.5803566,1.0945384 L362.659071,280.791697"/><path id="Line-Copy-14" d="M116.062349,1.0945384 L379.141064,280.791697"/><path id="Line-Copy-15" d="M132.544342,1.0945384 L395.623057,280.791697"/><path id="Line-Copy-16" d="M149.026335,1.0945384 L412.105049,280.791697"/><path id="Line-Copy-18" d="M165.508327,1.0945384 L428.587042,280.791697"/><path id="Line-Copy-19" d="M181.99032,1.0945384 L445.069035,280.791697"/><path id="Line-Copy-20" d="M198.472313,1.0945384 L461.551027,280.791697"/><path id="Line-Copy-21" d="M214.954305,1.0945384 L478.03302,280.791697"/><path id="Line-Copy-22" d="M231.436298,1.0945384 L494.515013,280.791697"/><path id="Line-Copy-23" d="M247.918291,1.0945384 L510.997005,280.791697"/><path id="Line-Copy-24" d="M264.400283,1.0945384 L527.478998,280.791697"/><path id="Line-Copy-25" d="M280.882276,1.0945384 L543.960991,280.791697"/><path id="Line-Copy-26" d="M297.364269,1.0945384 L560.442984,280.791697"/><path id="Line-Copy-27" d="M313.846262,1.0945384 L576.924976,280.791697"/><path id="Line-Copy-28" d="M330.328254,1.0945384 L593.406969,280.791697"/><path id="Line-Copy-29" d="M346.810247,1.0945384 L609.888962,280.791697"/><path id="Line-Copy-30" d="M363.29224,1.0945384 L626.370954,280.791697"/><path id="Line-Copy-31" d="M379.774232,1.0945384 L642.852947,280.791697"/><path id="Line-Copy-32" d="M396.256225,1.0945384 L659.33494,280.791697"/><path id="Line-Copy-33" d="M412.738218,1.0945384 L675.816932,280.791697"/><path id="Line-Copy-34" d="M429.22021,1.0945384 L692.298925,280.791697"/><path id="Line-Copy-35" d="M445.702203,1.0945384 L708.780918,280.791697"/><path id="Line-Copy-36" d="M462.184196,1.0945384 L725.26291,280.791697"/></g></g></g><g id="Group-Copy" transform="translate(46.474121, 76.254058)"><mask id="mask-4" fill="#fff"><use xlink:href="#path-3"/></mask><use id="Mask" stroke="#EB6845" xlink:href="#path-3"/><g id="Group" stroke="#EB6845" stroke-linecap="square" mask="url(#mask-4)"><g transform="translate(-257.372655, -150.193546)"><path id="Line" d="M0.667251838,1.0945384 L263.745966,280.791697"/><path id="Line-Copy-8" d="M17.1703932,1.0945384 L280.249108,280.791697"/><path id="Line-Copy-9" d="M33.6523859,1.0945384 L296.731101,280.791697"/><path id="Line-Copy-10" d="M50.1343786,1.0945384 L313.213093,280.791697"/><path id="Line-Copy-11" d="M66.6163713,1.0945384 L329.695086,280.791697"/><path id="Line-Copy-12" d="M83.098364,1.0945384 L346.177079,280.791697"/><path id="Line-Copy-13" d="M99.5803566,1.0945384 L362.659071,280.791697"/><path id="Line-Copy-14" d="M116.062349,1.0945384 L379.141064,280.791697"/><path id="Line-Copy-15" d="M132.544342,1.0945384 L395.623057,280.791697"/><path id="Line-Copy-16" d="M149.026335,1.0945384 L412.105049,280.791697"/><path id="Line-Copy-18" d="M165.508327,1.0945384 L428.587042,280.791697"/><path id="Line-Copy-19" d="M181.99032,1.0945384 L445.069035,280.791697"/><path id="Line-Copy-20" d="M198.472313,1.0945384 L461.551027,280.791697"/><path id="Line-Copy-21" d="M214.954305,1.0945384 L478.03302,280.791697"/><path id="Line-Copy-22" d="M231.436298,1.0945384 L494.515013,280.791697"/><path id="Line-Copy-23" d="M247.918291,1.0945384 L510.997005,280.791697"/><path id="Line-Copy-24" d="M264.400283,1.0945384 L527.478998,280.791697"/><path id="Line-Copy-25" d="M280.882276,1.0945384 L543.960991,280.791697"/><path id="Line-Copy-26" d="M297.364269,1.0945384 L560.442984,280.791697"/><path id="Line-Copy-27" d="M313.846262,1.0945384 L576.924976,280.791697"/><path id="Line-Copy-28" d="M330.328254,1.0945384 L593.406969,280.791697"/><path id="Line-Copy-29" d="M346.810247,1.0945384 L609.888962,280.791697"/><path id="Line-Copy-30" d="M363.29224,1.0945384 L626.370954,280.791697"/><path id="Line-Copy-31" d="M379.774232,1.0945384 L642.852947,280.791697"/><path id="Line-Copy-32" d="M396.256225,1.0945384 L659.33494,280.791697"/><path id="Line-Copy-33" d="M412.738218,1.0945384 L675.816932,280.791697"/><path id="Line-Copy-34" d="M429.22021,1.0945384 L692.298925,280.791697"/><path id="Line-Copy-35" d="M445.702203,1.0945384 L708.780918,280.791697"/><path id="Line-Copy-36" d="M462.184196,1.0945384 L725.26291,280.791697"/></g></g></g><rect id="Rectangle-201" width="66.346" height="36.847" x="47.301" y="25.268" fill="#39D" rx="3"/><rect id="Rectangle-201-Copy" width="66.346" height="38.035" x="179.18" y="76.888" fill="#EB6845" rx="3"/><g id="Group-Copy-2" transform="translate(46.474121, 128.235727)"><mask id="mask-6" fill="#fff"><use xlink:href="#path-5"/></mask><use id="Mask" stroke="#AAA" xlink:href="#path-5"/><g id="Group" stroke="#AAA" stroke-linecap="square" mask="url(#mask-6)"><g transform="translate(-257.372655, -150.193546)"><path id="Line" d="M0.667251838,1.0945384 L263.745966,280.791697"/><path id="Line-Copy-8" d="M17.1703932,1.0945384 L280.249108,280.791697"/><path id="Line-Copy-9" d="M33.6523859,1.0945384 L296.731101,280.791697"/><path id="Line-Copy-10" d="M50.1343786,1.0945384 L313.213093,280.791697"/><path id="Line-Copy-11" d="M66.6163713,1.0945384 L329.695086,280.791697"/><path id="Line-Copy-12" d="M83.098364,1.0945384 L346.177079,280.791697"/><path id="Line-Copy-13" d="M99.5803566,1.0945384 L362.659071,280.791697"/><path id="Line-Copy-14" d="M116.062349,1.0945384 L379.141064,280.791697"/><path id="Line-Copy-15" d="M132.544342,1.0945384 L395.623057,280.791697"/><path id="Line-Copy-16" d="M149.026335,1.0945384 L412.105049,280.791697"/><path id="Line-Copy-18" d="M165.508327,1.0945384 L428.587042,280.791697"/><path id="Line-Copy-19" d="M181.99032,1.0945384 L445.069035,280.791697"/><path id="Line-Copy-20" d="M198.472313,1.0945384 L461.551027,280.791697"/><path id="Line-Copy-21" d="M214.954305,1.0945384 L478.03302,280.791697"/><path id="Line-Copy-22" d="M231.436298,1.0945384 L494.515013,280.791697"/><path id="Line-Copy-23" d="M247.918291,1.0945384 L510.997005,280.791697"/><path id="Line-Copy-24" d="M264.400283,1.0945384 L527.478998,280.791697"/><path id="Line-Copy-25" d="M280.882276,1.0945384 L543.960991,280.791697"/><path id="Line-Copy-26" d="M297.364269,1.0945384 L560.442984,280.791697"/><path id="Line-Copy-27" d="M313.846262,1.0945384 L576.924976,280.791697"/><path id="Line-Copy-28" d="M330.328254,1.0945384 L593.406969,280.791697"/><path id="Line-Copy-29" d="M346.810247,1.0945384 L609.888962,280.791697"/><path id="Line-Copy-30" d="M363.29224,1.0945384 L626.370954,280.791697"/><path id="Line-Copy-31" d="M379.774232,1.0945384 L642.852947,280.791697"/><path id="Line-Copy-32" d="M396.256225,1.0945384 L659.33494,280.791697"/><path id="Line-Copy-33" d="M412.738218,1.0945384 L675.816932,280.791697"/><path id="Line-Copy-34" d="M429.22021,1.0945384 L692.298925,280.791697"/><path id="Line-Copy-35" d="M445.702203,1.0945384 L708.780918,280.791697"/><path id="Line-Copy-36" d="M462.184196,1.0945384 L725.26291,280.791697"/></g></g></g><path id="Rectangle-201-Copy-2" fill="#AAA" d="M112.826816,132.246437 C112.826816,130.590472 114.167103,129.248047 115.828193,129.248047 L176.171802,129.248047 C177.829416,129.248047 179.173178,130.587589 179.173178,132.246437 L179.173181,163.272704 C179.173181,164.92867 177.832894,166.271095 176.171804,166.271095 L115.828196,166.271095 C114.170581,166.271095 112.826819,164.931553 112.826819,163.272704 L112.826816,132.246437 Z"/></g></g></svg>