<svg xmlns="http://www.w3.org/2000/svg" xmlns:xlink="http://www.w3.org/1999/xlink" width="292" height="192" version="1.1" viewBox="0 0 292 192"><title>Tables - Page Icon</title><desc>Created with Sketch.</desc><defs><rect id="path-1" width="28.452" height="139.468" x=".471" y=".659" rx="3"/></defs><g id="--Images" fill="none" fill-rule="evenodd" stroke="none" stroke-width="1"><g id="Tables---Page-Icon-"><g id="Group" transform="translate(52.000000, 17.000000)"><rect id="Rectangle-290" width="29.453" height="140.252" x=".962" y="15.901" stroke="#EB6845"/><rect id="Rectangle-290-Copy" width="29.453" height="140.252" x="40.641" y="15.901" stroke="#6D6D6D" stroke-dasharray="4"/><rect id="Rectangle-290-Copy-2" width="89.219" height="140.252" x="80.319" y="15.901" stroke="#EB6845"/><path id="Path-142" stroke="#979797" d="M54.7151612,89.2609879 C113.719448,103.438178 134.877716,91.048374 151.454524,86.6312704"/><path id="Rectangle-250" fill="#979797" d="M147.503358,82.3875252 L153.992094,85.2764964 L151.103123,91.7652319 L147.503358,82.3875252 Z"/><g transform="translate(172.298592, 72.087399) rotate(-5.000000) translate(-172.298592, -72.087399) translate(157.559275, 1.847628)"><mask id="mask-2" fill="#fff"><use xlink:href="#path-1"/></mask><use id="Mask" fill="#FFF" stroke="#39D" xlink:href="#path-1"/><g stroke="#39D" stroke-linecap="square" mask="url(#mask-2)"><g transform="translate(-176.004776, -3.870640)"><path id="Line" d="M0.456301429,0.748622209 L180.363177,192.050731"/><path id="Line-Copy-8" d="M11.7420058,0.748622209 L191.648882,192.050731"/><path id="Line-Copy-9" d="M23.0132477,0.748622209 L202.920124,192.050731"/><path id="Line-Copy-10" d="M34.2844895,0.748622209 L214.191365,192.050731"/><path id="Line-Copy-11" d="M45.5557313,0.748622209 L225.462607,192.050731"/><path id="Line-Copy-12" d="M56.8269731,0.748622209 L236.733849,192.050731"/><path id="Line-Copy-13" d="M68.098215,0.748622209 L248.005091,192.050731"/><path id="Line-Copy-14" d="M79.3694568,0.748622209 L259.276333,192.050731"/><path id="Line-Copy-15" d="M90.6406986,0.748622209 L270.547574,192.050731"/><path id="Line-Copy-16" d="M101.91194,0.748622209 L281.818816,192.050731"/><path id="Line-Copy-18" d="M113.183182,0.748622209 L293.090058,192.050731"/><path id="Line-Copy-19" d="M124.454424,0.748622209 L304.3613,192.050731"/><path id="Line-Copy-20" d="M135.725666,0.748622209 L315.632542,192.050731"/><path id="Line-Copy-21" d="M146.996908,0.748622209 L326.903784,192.050731"/><path id="Line-Copy-22" d="M158.26815,0.748622209 L338.175025,192.050731"/><path id="Line-Copy-23" d="M169.539391,0.748622209 L349.446267,192.050731"/><path id="Line-Copy-24" d="M180.810633,0.748622209 L360.717509,192.050731"/><path id="Line-Copy-25" d="M192.081875,0.748622209 L371.988751,192.050731"/><path id="Line-Copy-26" d="M203.353117,0.748622209 L383.259993,192.050731"/><path id="Line-Copy-27" d="M214.624359,0.748622209 L394.531235,192.050731"/><path id="Line-Copy-28" d="M225.895601,0.748622209 L405.802476,192.050731"/><path id="Line-Copy-29" d="M237.166842,0.748622209 L417.073718,192.050731"/><path id="Line-Copy-30" d="M248.438084,0.748622209 L428.34496,192.050731"/><path id="Line-Copy-31" d="M259.709326,0.748622209 L439.616202,192.050731"/></g></g></g></g></g></g></svg>