<svg xmlns="http://www.w3.org/2000/svg" xmlns:xlink="http://www.w3.org/1999/xlink" width="334" height="198" version="1.1" viewBox="0 0 334 198"><title>Tabs - Page Icon</title><desc>Created with Sketch.</desc><defs><rect id="path-1" width="83.457" height="106.299" x=".543" y=".863" rx="3"/></defs><g id="--Images" fill="none" fill-rule="evenodd" stroke="none" stroke-width="1"><g id="Tabs---Page-Icon"><g id="Group" transform="translate(5.000000, 11.000000)"><g transform="translate(16.763672, 59.916255)"><mask id="mask-2" fill="#fff"><use xlink:href="#path-1"/></mask><use id="Mask" stroke="#39D" xlink:href="#path-1"/><g stroke="#39D" stroke-linecap="square" mask="url(#mask-2)"><g transform="translate(-203.000000, -41.463595)"><path id="Line" d="M0.526287935,0.863305762 L208.026883,221.471525"/><path id="Line-Copy-8" d="M13.5429688,0.863305762 L221.043564,221.471525"/><path id="Line-Copy-9" d="M26.5429688,0.863305762 L234.043564,221.471525"/><path id="Line-Copy-10" d="M39.5429688,0.863305762 L247.043564,221.471525"/><path id="Line-Copy-11" d="M52.5429688,0.863305762 L260.043564,221.471525"/><path id="Line-Copy-12" d="M65.5429688,0.863305762 L273.043564,221.471525"/><path id="Line-Copy-13" d="M78.5429688,0.863305762 L286.043564,221.471525"/><path id="Line-Copy-14" d="M91.5429688,0.863305762 L299.043564,221.471525"/><path id="Line-Copy-15" d="M104.542969,0.863305762 L312.043564,221.471525"/><path id="Line-Copy-16" d="M117.542969,0.863305762 L325.043564,221.471525"/><path id="Line-Copy-18" d="M130.542969,0.863305762 L338.043564,221.471525"/><path id="Line-Copy-19" d="M143.542969,0.863305762 L351.043564,221.471525"/><path id="Line-Copy-20" d="M156.542969,0.863305762 L364.043564,221.471525"/><path id="Line-Copy-21" d="M169.542969,0.863305762 L377.043564,221.471525"/><path id="Line-Copy-22" d="M182.542969,0.863305762 L390.043564,221.471525"/><path id="Line-Copy-23" d="M195.542969,0.863305762 L403.043564,221.471525"/><path id="Line-Copy-24" d="M208.542969,0.863305762 L416.043564,221.471525"/><path id="Line-Copy-25" d="M221.542969,0.863305762 L429.043564,221.471525"/><path id="Line-Copy-26" d="M234.542969,0.863305762 L442.043564,221.471525"/><path id="Line-Copy-27" d="M247.542969,0.863305762 L455.043564,221.471525"/><path id="Line-Copy-28" d="M260.542969,0.863305762 L468.043564,221.471525"/><path id="Line-Copy-29" d="M273.542969,0.863305762 L481.043564,221.471525"/><path id="Line-Copy-30" d="M286.542969,0.863305762 L494.043564,221.471525"/><path id="Line-Copy-31" d="M299.542969,0.863305762 L507.043564,221.471525"/><path id="Line-Copy-32" d="M312.542969,0.863305762 L520.043564,221.471525"/><path id="Line-Copy-33" d="M325.542969,0.863305762 L533.043564,221.471525"/><path id="Line-Copy-34" d="M338.542969,0.863305762 L546.043564,221.471525"/><path id="Line-Copy-35" d="M351.542969,0.863305762 L559.043564,221.471525"/><path id="Line-Copy-36" d="M364.542969,0.863305762 L572.043564,221.471525"/></g></g></g><rect id="Rectangle-286" width="38.91" height="10" x="11.188" y=".233" fill="#EB6845"/><rect id="Rectangle-286-Copy" width="38.91" height="10" x="62.854" y=".233" fill="#9A9A9A"/><rect id="Rectangle-286-Copy-2" width="38.91" height="10" x="113.854" y=".233" fill="#9A9A9A"/><rect id="Rectangle-286-Copy-3" width="38.91" height="10" x="164.854" y=".233" fill="#9A9A9A"/><rect id="Rectangle-290" width="324.625" height="133.833" x=".309" y="46.544" stroke="#39D" rx="3"/><path id="Path-290" stroke="#EB6845" d="M12.0410156,12.6786012 L12.0410156,39.892579"/><path id="Path-290-Copy-2" stroke="#EB6845" d="M29.9960938,12.6786012 L29.9404934,38.4414071 L187.314453,38.4414071"/><path id="Path-290-Copy" stroke="#EB6845" d="M48.4511719,12.6786012 L48.3783737,25.5742187 L318.80858,25.5742187 L318.80858,35.9098225"/><circle id="Oval-32" cx="187" cy="39" r="3" fill="#FFF" stroke="#EB6845"/><circle id="Oval-32-Copy" cx="318.898" cy="39" r="3" fill="#FFF" stroke="#EB6845"/><circle id="Oval-32-Copy-2" cx="12.041" cy="39" r="3" fill="#FFF" stroke="#EB6845"/><rect id="Rectangle-290" width="73.547" height="24" x="236.99" y="144.964" fill="#39D"/><rect id="Rectangle-290-Copy-4" width="86" height="6" x="109.764" y="59.916" fill="#AAA"/><rect id="Rectangle-290-Copy-5" width="127.227" height="6" x="109.764" y="72.989" fill="#AAA"/><rect id="Rectangle-290-Copy-6" width="58.283" height="6" x="109.764" y="87.288" fill="#AAA"/><rect id="Rectangle-290-Copy-7" width="99.505" height="6" x="109.764" y="123.832" fill="#AAA"/></g></g></g></svg>