<svg xmlns="http://www.w3.org/2000/svg" xmlns:xlink="http://www.w3.org/1999/xlink" width="166" height="164" version="1.1" viewBox="0 0 166 164"><title>Typography - Principles - Clarity</title><desc>Created with Sketch.</desc><g id="Images" fill="none" fill-rule="evenodd" stroke="none" stroke-width="1"><g id="Typography---Principles---Clarity"><g id="Shape-+-Oval-4" transform="translate(8.000000, 7.000000)"><path id="Shape" fill="#C63889" d="M92.2608242,85.7584327 L88.7869438,85.7584327 L87.4805273,84.4520161 C91.8154549,79.6717192 94.4282881,73.1693277 94.4282881,66.2215668 C94.4282881,50.589105 81.839183,38 66.2215668,38 C50.6039507,38 38,50.589105 38,66.2215668 C38,81.8540287 50.589105,94.4431337 66.2215668,94.4431337 C73.1693277,94.4431337 79.6865648,91.8303006 84.4520161,87.4953729 L85.7584327,88.8017895 L85.7584327,92.2756699 L107.462762,113.98 L113.98,107.462762 L92.2608242,85.7584327 L92.2608242,85.7584327 Z M66.2215668,85.7584327 C55.369402,85.7584327 46.684701,77.0737317 46.684701,66.2215668 C46.684701,55.369402 55.369402,46.684701 66.2215668,46.684701 C77.0737317,46.684701 85.7584327,55.369402 85.7584327,66.2215668 C85.7584327,77.0737317 77.0737317,85.7584327 66.2215668,85.7584327 L66.2215668,85.7584327 Z" opacity=".653"/><circle id="Oval-4" cx="75.5" cy="75.5" r="75.5" stroke="#D5D5D5" stroke-width="2"/></g></g></g></svg>